<mxfile host="Electron" modified="2021-04-06T15:42:08.972Z" agent="5.0 (Windows NT 10.0; Win64; x64) AppleWebKit/537.36 (KHTML, like Gecko) draw.io/14.1.8 Chrome/87.0.4280.88 Electron/11.1.1 Safari/537.36" etag="r5zDM7AOV8aXOp6HUIaQ" compressed="false" version="14.1.8" type="device">
  <diagram id="9Zlezzs-ueOoSnWW0amn" name="Seite-1">
    <mxGraphModel dx="905" dy="569" grid="1" gridSize="10" guides="1" tooltips="1" connect="1" arrows="1" fold="1" page="1" pageScale="1" pageWidth="827" pageHeight="1169" background="#000000" math="0" shadow="0">
      <root>
        <mxCell id="0" />
        <mxCell id="1" parent="0" />
        <mxCell id="AULAekg4sg8HQ-gJuJak-2" value="" style="endArrow=classic;html=1;strokeWidth=2;strokeColor=#FFFFFF;" edge="1" parent="1">
          <mxGeometry width="50" height="50" relative="1" as="geometry">
            <mxPoint x="240" y="320" as="sourcePoint" />
            <mxPoint x="240" y="40" as="targetPoint" />
          </mxGeometry>
        </mxCell>
        <mxCell id="AULAekg4sg8HQ-gJuJak-9" value="" style="endArrow=none;dashed=1;html=1;strokeWidth=1;entryX=1;entryY=0;entryDx=0;entryDy=0;strokeColor=#FFFFFF;" edge="1" parent="1" target="AULAekg4sg8HQ-gJuJak-8">
          <mxGeometry width="50" height="50" relative="1" as="geometry">
            <mxPoint x="200" y="200" as="sourcePoint" />
            <mxPoint x="250" y="150" as="targetPoint" />
          </mxGeometry>
        </mxCell>
        <mxCell id="AULAekg4sg8HQ-gJuJak-10" value="" style="endArrow=none;dashed=1;html=1;strokeWidth=1;entryX=0;entryY=0;entryDx=0;entryDy=0;strokeColor=#FFFFFF;" edge="1" parent="1" target="AULAekg4sg8HQ-gJuJak-6">
          <mxGeometry width="50" height="50" relative="1" as="geometry">
            <mxPoint x="360" y="360" as="sourcePoint" />
            <mxPoint x="460" y="60" as="targetPoint" />
          </mxGeometry>
        </mxCell>
        <mxCell id="AULAekg4sg8HQ-gJuJak-3" value="" style="endArrow=classic;html=1;strokeWidth=2;strokeColor=#FFFFFF;" edge="1" parent="1">
          <mxGeometry width="50" height="50" relative="1" as="geometry">
            <mxPoint x="240" y="320" as="sourcePoint" />
            <mxPoint x="520" y="320" as="targetPoint" />
          </mxGeometry>
        </mxCell>
        <mxCell id="AULAekg4sg8HQ-gJuJak-11" value="Dringend" style="text;html=1;strokeColor=none;fillColor=none;align=center;verticalAlign=middle;whiteSpace=wrap;rounded=0;fontColor=#FFFFFF;" vertex="1" parent="1">
          <mxGeometry x="240" y="320" width="120" height="40" as="geometry" />
        </mxCell>
        <mxCell id="AULAekg4sg8HQ-gJuJak-12" value="Nicht dringend" style="text;html=1;strokeColor=none;fillColor=none;align=center;verticalAlign=middle;whiteSpace=wrap;rounded=0;fontColor=#FFFFFF;" vertex="1" parent="1">
          <mxGeometry x="360" y="320" width="120" height="40" as="geometry" />
        </mxCell>
        <mxCell id="AULAekg4sg8HQ-gJuJak-13" value="Nicht wichtig" style="text;html=1;strokeColor=none;fillColor=none;align=center;verticalAlign=middle;whiteSpace=wrap;rounded=0;horizontal=0;fontColor=#FFFFFF;" vertex="1" parent="1">
          <mxGeometry x="200" y="200" width="40" height="120" as="geometry" />
        </mxCell>
        <mxCell id="AULAekg4sg8HQ-gJuJak-14" value="Wichtig" style="text;html=1;strokeColor=none;fillColor=none;align=center;verticalAlign=middle;whiteSpace=wrap;rounded=0;horizontal=0;fontColor=#FFFFFF;" vertex="1" parent="1">
          <mxGeometry x="200" y="80" width="40" height="120" as="geometry" />
        </mxCell>
        <mxCell id="AULAekg4sg8HQ-gJuJak-8" value="&lt;b&gt;&lt;font style=&quot;font-size: 14px&quot;&gt;Entfernen&lt;/font&gt;&lt;/b&gt;&lt;br&gt;&lt;br&gt;Nicht wichtig -&lt;br&gt;weg damit." style="rounded=0;whiteSpace=wrap;html=1;fillColor=#f5f5f5;strokeColor=#666666;fontColor=#666666;" vertex="1" parent="1">
          <mxGeometry x="360" y="200" width="120" height="120" as="geometry" />
        </mxCell>
        <mxCell id="AULAekg4sg8HQ-gJuJak-7" value="&lt;b&gt;&lt;font style=&quot;font-size: 14px&quot;&gt;Delegieren&lt;/font&gt;&lt;/b&gt;&lt;br&gt;&lt;br&gt;Wer kann das für&lt;br&gt;Dich erledigen?" style="rounded=0;whiteSpace=wrap;html=1;fillColor=#dae8fc;strokeColor=#6c8ebf;" vertex="1" parent="1">
          <mxGeometry x="240" y="200" width="120" height="120" as="geometry" />
        </mxCell>
        <mxCell id="AULAekg4sg8HQ-gJuJak-6" value="&lt;span style=&quot;font-size: 14px&quot;&gt;&lt;b&gt;Planen&lt;/b&gt;&lt;/span&gt;&lt;br&gt;&lt;br&gt;Zeit für Erledigung&lt;br&gt;planen." style="rounded=0;whiteSpace=wrap;html=1;fillColor=#fff2cc;strokeColor=#d6b656;" vertex="1" parent="1">
          <mxGeometry x="360" y="80" width="120" height="120" as="geometry" />
        </mxCell>
        <mxCell id="AULAekg4sg8HQ-gJuJak-5" value="&lt;b&gt;&lt;font style=&quot;font-size: 14px&quot;&gt;Machen&lt;/font&gt;&lt;/b&gt;&lt;br&gt;&lt;br&gt;Als erstes&lt;br&gt;erledigen." style="rounded=0;whiteSpace=wrap;html=1;fillColor=#d5e8d4;strokeColor=#82b366;" vertex="1" parent="1">
          <mxGeometry x="240" y="80" width="120" height="120" as="geometry" />
        </mxCell>
      </root>
    </mxGraphModel>
  </diagram>
</mxfile>
